Patient4_TMGait_0pt5_02_left_24_GRF.mot
version=1
nRows=58
nColumns=19
inDegrees=no
endheader
time	F1x	F1y	F1z	M1x	M1y	M1z	F2x	F2y	F2z	M2x	M2y	M2z	EC1x	EC1y	EC1z	EC2x	EC2y	EC2z
30.59	-3.1055	-5.3081	-2.9499	1.8968	3.9906	-4.3066	-45.9309	767.2148	-57.9688	285.6683	60.7261	621.9657	-0.0592	0.0182	-0.0073	-0.0462	0.0165	0.9585
30.6028	-2.2242	-2.8435	-1.9305	1.026	2.6431	-2.3449	-45.3955	754.2286	-58.0407	281.7211	61.0651	608.6995	-0.0592	0.0182	-0.0073	-0.0462	0.0165	0.9585
30.6156	-1.4581	-0.74853	-1.053	0.28359	1.476	-0.68948	-44.2942	740.9736	-57.9054	277.499	60.8345	594.7012	-0.0592	0.0182	-0.0073	-0.0462	0.0165	0.9585
30.6284	-0.85094	0.87078	-0.37174	-0.29377	0.57058	0.58055	-42.5907	728.5122	-57.5672	273.3813	60.0083	580.8219	-0.0592	0.0182	-0.0073	-0.0462	0.0165	0.9585
30.6411	-0.419	2.0342	0.11378	-0.7114	-0.076459	1.505	-40.2648	717.7597	-57.0436	269.7594	58.6213	567.7247	-0.0592	0.0182	-0.0073	-0.0462	0.0165	0.9585
30.6539	-0.13368	2.794	0.43221	-0.98815	-0.50249	2.125	-37.2605	709.5224	-56.331	267.0222	56.6958	555.9115	-0.0592	0.0182	-0.0073	-0.0462	0.0165	0.9585
30.6667	0.024216	3.23	0.6225	-1.1508	-0.76186	2.5066	-33.4642	704.5693	-55.397	265.5615	54.2189	545.7997	-0.0592	0.0182	-0.0073	-0.0462	0.0165	0.9585
30.6795	0.087417	3.3994	0.72052	-1.2183	-0.90112	2.6783	-28.7153	703.6988	-54.1855	265.7779	51.1345	537.792	-0.0592	0.0182	-0.0073	-0.0462	0.0165	0.9585
30.6923	0.071353	3.3312	0.75884	-1.1988	-0.96362	2.6599	-22.8382	707.7691	-52.669	268.0697	47.3856	532.3519	-0.0592	0.0182	-0.0073	-0.0462	0.0165	0.9585
30.7051	-0.0055461	3.0248	0.76004	-1.0898	-0.97881	2.4408	-15.7237	717.5071	-50.8874	272.7489	42.9703	529.924	-0.0592	0.0182	-0.0073	-0.0462	0.0165	0.9585
30.7179	-0.12038	2.4438	0.74039	-0.8781	-0.96826	1.9886	-7.4533	733.0578	-48.9801	279.8623	38.0086	530.6751	-0.0592	0.0182	-0.0073	-0.0462	0.0165	0.9585
30.7306	-0.26322	1.5376	0.69891	-0.546	-0.94061	1.2645	1.6583	753.4628	-47.1694	288.9877	32.7652	534.1683	-0.0592	0.0182	-0.0073	-0.0462	0.0165	0.9585
30.7434	-0.41656	0.25535	0.63564	-0.077607	-0.90158	0.21824	11.0349	776.3478	-45.7222	299.1216	27.6391	539.1514	-0.0592	0.0182	-0.0073	-0.0462	0.0165	0.9585
30.7562	-0.57585	-1.4095	0.53723	0.52762	-0.84237	-1.1525	19.9391	798.2537	-44.8791	308.8232	23.0779	543.7484	-0.0592	0.0182	-0.0073	-0.0462	0.0165	0.9585
30.769	-0.70016	-3.3864	0.38236	1.2404	-0.73493	-2.7986	27.6779	815.5531	-44.7261	316.5915	19.4134	546.001	-0.0592	0.0182	-0.0073	-0.0462	0.0165	0.9585
30.7818	-0.75434	-5.457	0.13955	1.978	-0.53591	-4.5343	33.7228	825.3356	-45.1431	321.2311	16.7776	544.3743	-0.0592	0.0182	-0.0073	-0.0462	0.0165	0.9585
30.7946	-0.67042	-7.1961	-0.23132	2.582	-0.18213	-6.0129	37.8135	825.9839	-45.8843	322.0841	15.1236	538.0621	-0.0592	0.0182	-0.0073	-0.0462	0.0165	0.9585
30.8074	-0.36474	-7.8861	-0.76406	2.7906	0.38837	-6.6348	39.9402	817.4129	-46.7123	319.1128	14.3121	527.132	-0.0592	0.0182	-0.0073	-0.0462	0.0165	0.9585
30.8201	0.26678	-6.455	-1.4708	2.2132	1.2227	-5.5115	40.3341	800.8997	-47.4761	312.8304	14.166	512.3748	-0.0592	0.0182	-0.0073	-0.0462	0.0165	0.9585
30.8329	1.3268	-1.4618	-2.3102	0.32714	2.3187	-1.4478	39.4273	778.6778	-48.1194	304.1357	14.4911	495.079	-0.0592	0.0182	-0.0073	-0.0462	0.0165	0.9585
30.8457	2.8801	8.8604	-3.1806	-3.5063	3.6071	7.0246	37.7572	753.3364	-48.6246	294.0741	15.0726	476.6839	-0.0592	0.0182	-0.0073	-0.0462	0.0165	0.9585
30.8585	4.8786	26.448	-3.8892	-9.9806	4.8985	21.523	35.8224	727.186	-48.9875	283.5855	15.7179	458.4349	-0.0592	0.0182	-0.0073	-0.0462	0.0165	0.9585
30.8713	7.0484	53.0645	-4.1617	-19.7192	5.8552	43.5439	33.9714	701.7496	-49.1806	273.3033	16.2719	441.1027	-0.0592	0.0182	-0.0073	-0.0462	0.0165	0.9585
30.8841	8.7737	89.705	-3.6474	-33.0564	5.951	73.9517	32.3478	677.508	-49.1354	263.4526	16.6323	424.8597	-0.0592	0.0182	-0.0073	-0.0462	0.0165	0.9585
30.8969	9.0917	135.8948	-1.9548	-49.7808	4.5041	112.4135	30.9153	653.9836	-48.7151	253.8806	16.7295	409.3463	-0.0592	0.0182	-0.0073	-0.0462	0.0165	0.9585
30.9096	7.3546	189.1296	1.294	-68.9407	0.96399	156.8924	29.5351	630.1023	-47.7588	244.2012	16.5309	393.8644	-0.0592	0.0182	-0.0073	-0.0462	0.0165	0.9585
30.9224	3.776	244.5953	6.3195	-88.7604	-4.7626	203.3451	28.0571	604.7379	-46.1291	234.003	16.0195	377.6998	-0.0592	0.0182	-0.0073	-0.0462	0.0165	0.9585
30.9352	-0.79125	296.2151	12.8522	-107.0684	-12.1126	246.5309	26.4317	577.2295	-43.8008	223.0467	15.2109	360.4	-0.0592	0.0182	-0.0073	-0.0462	0.0165	0.9585
30.948	-5.3388	339.862	19.888	-122.4421	-19.8279	282.8091	24.7149	547.7079	-40.8888	211.3876	14.1502	341.9816	-0.0592	0.0182	-0.0073	-0.0462	0.0165	0.9585
30.9608	-9.3441	374.6211	26.3665	-134.6327	-26.7949	311.3327	23.0894	516.9858	-37.6796	199.3313	12.9309	322.8584	-0.0592	0.0182	-0.0073	-0.0462	0.0165	0.9585
30.9736	-12.5201	401.6998	31.4199	-144.1501	-32.1758	333.1082	21.7836	486.0735	-34.5361	187.2477	11.6688	303.5791	-0.0592	0.0182	-0.0073	-0.0462	0.0165	0.9585
30.9864	-14.8092	422.9265	34.5828	-151.6966	-35.5706	349.7453	20.9671	455.7557	-31.7062	175.4207	10.4333	284.5784	-0.0592	0.0182	-0.0073	-0.0462	0.0165	0.9585
30.9991	-16.1807	439.8496	35.7593	-157.8387	-36.9039	362.5577	20.7384	426.4615	-29.2328	164.0015	9.1975	266.1034	-0.0592	0.0182	-0.0073	-0.0462	0.0165	0.9585
31.0119	-16.6968	453.5955	35.3569	-162.9432	-36.5591	372.5346	21.0643	398.2183	-27.0526	152.9913	7.9258	248.1907	-0.0592	0.0182	-0.0073	-0.0462	0.0165	0.9585
31.0247	-16.4464	465.0563	34.0114	-167.2748	-35.1077	380.4326	21.7843	370.6795	-25.0593	142.2541	6.6034	230.6615	-0.0592	0.0182	-0.0073	-0.0462	0.0165	0.9585
31.0375	-15.5961	475.1942	32.509	-171.1166	-33.2719	387.0804	22.6188	343.2752	-23.183	131.5681	5.2877	213.2223	-0.0592	0.0182	-0.0073	-0.0462	0.0165	0.9585
31.0503	-14.3642	485.1476	31.4558	-174.8361	-31.6277	393.4116	23.2383	315.3898	-21.3953	120.6983	4.0817	195.5314	-0.0592	0.0182	-0.0073	-0.0462	0.0165	0.9585
31.0631	-12.9978	496.2166	31.3089	-178.8787	-30.6424	400.4509	23.2897	286.6119	-19.7192	109.49	3.1343	177.3843	-0.0592	0.0182	-0.0073	-0.0462	0.0165	0.9585
31.0759	-11.7232	509.7955	32.1948	-183.7464	-30.4905	409.2575	22.533	256.8911	-18.1778	97.9337	2.5562	158.7681	-0.0592	0.0182	-0.0073	-0.0462	0.0165	0.9585
31.0886	-10.6447	527.1229	34.0499	-189.9033	-31.1583	420.7211	20.8636	226.5768	-16.7722	86.1737	2.3922	139.9003	-0.0592	0.0182	-0.0073	-0.0462	0.0165	0.9585
31.1014	-9.81	548.9934	36.6224	-197.6622	-32.4503	435.3949	18.3655	196.3178	-15.4716	74.4666	2.5938	121.1567	-0.0592	0.0182	-0.0073	-0.0462	0.0165	0.9585
31.1142	-9.1695	575.4737	39.7341	-207.0682	-34.2092	453.2473	15.251	166.8508	-14.2361	63.1011	3.0565	102.9506	-0.0592	0.0182	-0.0073	-0.0462	0.0165	0.9585
31.127	-8.6474	605.9173	43.2122	-217.8982	-36.2625	473.7235	11.7586	138.8809	-13.0109	52.3506	3.6527	85.6929	-0.0592	0.0182	-0.0073	-0.0462	0.0165	0.9585
31.1398	-8.1051	639.143	46.9416	-229.7254	-38.4767	495.8775	8.1496	112.9401	-11.74	42.4228	4.2533	69.6849	-0.0592	0.0182	-0.0073	-0.0462	0.0165	0.9585
31.1526	-7.4094	673.6361	50.7232	-241.9977	-40.6508	518.5638	4.6493	89.3867	-10.3758	33.4537	4.7442	55.1657	-0.0592	0.0182	-0.0073	-0.0462	0.0165	0.9585
31.1654	-6.4584	707.6584	54.3568	-254.0819	-42.6082	540.5153	1.4991	68.4168	-8.8999	25.5153	5.0288	42.252	-0.0592	0.0182	-0.0073	-0.0462	0.0165	0.9585
31.1781	-5.2019	739.4301	57.6179	-265.3253	-44.1635	560.4718	-1.1027	50.16	-7.3327	18.6461	5.0439	31.0443	-0.0592	0.0182	-0.0073	-0.0462	0.0165	0.9585
31.1909	-3.6451	767.2961	60.3909	-275.1134	-45.241	577.3226	-2.9386	34.6971	-5.7374	12.865	4.7545	21.5863	-0.0592	0.0182	-0.0073	-0.0462	0.0165	0.9585
31.2037	-1.8495	789.8339	62.6154	-282.913	-45.8217	590.1491	-3.8615	22.1269	-4.2003	8.1929	4.1635	13.938	-0.0592	0.0182	-0.0073	-0.0462	0.0165	0.9585
31.2165	0.064204	805.9992	64.3225	-288.3247	-45.983	598.3389	-3.9119	12.5285	-2.8229	4.6442	3.3502	8.1206	-0.0592	0.0182	-0.0073	-0.0462	0.0165	0.9585
31.2293	1.9662	815.2239	65.5323	-291.1273	-45.7964	601.6222	-3.4547	5.8526	-1.7067	2.1852	2.5054	4.0937	-0.0592	0.0182	-0.0073	-0.0462	0.0165	0.9585
31.2421	3.7267	817.4834	66.2926	-291.3065	-45.3589	600.1259	-2.7895	1.6945	-0.90032	0.65894	1.7696	1.6137	-0.0592	0.0182	-0.0073	-0.0462	0.0165	0.9585
31.2549	5.2835	813.3772	66.6357	-289.0814	-44.7254	594.3746	-2.1131	-0.50516	-0.35695	-0.14367	1.1799	0.33919	-0.0592	0.0182	-0.0073	-0.0462	0.0165	0.9585
31.2676	6.6198	804.0041	66.6411	-284.855	-43.9657	585.2133	-1.5322	-1.3155	-0.042371	-0.4339	0.76704	-0.087084	-0.0592	0.0182	-0.0073	-0.0462	0.0165	0.9585
31.2804	7.7523	790.7378	66.4109	-279.1368	-43.1471	573.6365	-1.0942	-1.233	0.12007	-0.39522	0.49478	0.01408	-0.0592	0.0182	-0.0073	-0.0462	0.0165	0.9585
31.2932	8.7068	775.0768	66.0719	-272.4862	-42.3517	560.6757	-0.81081	-0.64905	0.16424	-0.1728	0.35439	0.41319	-0.0592	0.0182	-0.0073	-0.0462	0.0165	0.9585
31.306	9.5072	758.5391	65.7014	-265.4766	-41.6187	547.3457	-0.6689	0.15409	0.14401	0.12979	0.30606	0.93926	-0.0592	0.0182	-0.0073	-0.0462	0.0165	0.9585
31.3188	10.206	742.5243	65.3485	-258.6426	-40.9583	534.5449	-0.65234	0.98571	0.076072	0.4401	0.33862	1.4787	-0.0592	0.0182	-0.0073	-0.0462	0.0165	0.9585
